<mxfile host="app.diagrams.net" modified="2020-09-28T00:39:40.063Z" agent="5.0 (Windows NT 10.0; Win64; x64) AppleWebKit/537.36 (KHTML, like Gecko) Chrome/85.0.4183.121 Safari/537.36" etag="VNS41PI8e_fJ0mUNfL4h" version="13.7.5" type="github">
  <diagram id="C5RBs43oDa-KdzZeNtuy" name="Page-1">
    <mxGraphModel dx="782" dy="689" grid="1" gridSize="10" guides="1" tooltips="1" connect="1" arrows="1" fold="1" page="1" pageScale="1" pageWidth="827" pageHeight="1169" math="0" shadow="0">
      <root>
        <mxCell id="WIyWlLk6GJQsqaUBKTNV-0" />
        <mxCell id="WIyWlLk6GJQsqaUBKTNV-1" parent="WIyWlLk6GJQsqaUBKTNV-0" />
        <mxCell id="zQ4rizRjpe08op4Fu-Jd-41" value="" style="edgeStyle=orthogonalEdgeStyle;rounded=0;orthogonalLoop=1;jettySize=auto;html=1;" edge="1" parent="WIyWlLk6GJQsqaUBKTNV-1" source="zQ4rizRjpe08op4Fu-Jd-24" target="zQ4rizRjpe08op4Fu-Jd-26">
          <mxGeometry relative="1" as="geometry" />
        </mxCell>
        <mxCell id="zQ4rizRjpe08op4Fu-Jd-24" value="" style="rounded=0;whiteSpace=wrap;html=1;fillColor=none;dashed=1;" vertex="1" parent="WIyWlLk6GJQsqaUBKTNV-1">
          <mxGeometry x="14" y="335" width="140" height="233" as="geometry" />
        </mxCell>
        <mxCell id="zQ4rizRjpe08op4Fu-Jd-16" value="" style="rounded=0;whiteSpace=wrap;html=1;fillColor=none;dashed=1;" vertex="1" parent="WIyWlLk6GJQsqaUBKTNV-1">
          <mxGeometry x="337" y="270" width="140" height="110" as="geometry" />
        </mxCell>
        <mxCell id="WIyWlLk6GJQsqaUBKTNV-3" value="Objectives &amp;amp; &lt;br&gt;Scope of Work" style="rounded=0;whiteSpace=wrap;html=1;fontSize=12;glass=0;strokeWidth=1;shadow=0;arcSize=0;imageAspect=0;strokeOpacity=100;" parent="WIyWlLk6GJQsqaUBKTNV-1" vertex="1">
          <mxGeometry x="177" y="114" width="120" height="46" as="geometry" />
        </mxCell>
        <mxCell id="zQ4rizRjpe08op4Fu-Jd-3" value="" style="edgeStyle=orthogonalEdgeStyle;rounded=0;orthogonalLoop=1;jettySize=auto;html=1;" edge="1" parent="WIyWlLk6GJQsqaUBKTNV-1" target="WIyWlLk6GJQsqaUBKTNV-3">
          <mxGeometry relative="1" as="geometry">
            <mxPoint x="237" y="80" as="sourcePoint" />
          </mxGeometry>
        </mxCell>
        <mxCell id="zQ4rizRjpe08op4Fu-Jd-5" value="" style="edgeStyle=orthogonalEdgeStyle;rounded=0;orthogonalLoop=1;jettySize=auto;html=1;" edge="1" parent="WIyWlLk6GJQsqaUBKTNV-1">
          <mxGeometry relative="1" as="geometry">
            <mxPoint x="236.5" y="160" as="sourcePoint" />
            <mxPoint x="236.5" y="190" as="targetPoint" />
          </mxGeometry>
        </mxCell>
        <mxCell id="zQ4rizRjpe08op4Fu-Jd-6" value="Comprehensive Literature Review" style="rounded=0;whiteSpace=wrap;html=1;" vertex="1" parent="WIyWlLk6GJQsqaUBKTNV-1">
          <mxGeometry x="177" y="190" width="120" height="50" as="geometry" />
        </mxCell>
        <mxCell id="zQ4rizRjpe08op4Fu-Jd-7" value="" style="endArrow=classic;html=1;exitX=0.5;exitY=1;exitDx=0;exitDy=0;" edge="1" parent="WIyWlLk6GJQsqaUBKTNV-1" source="zQ4rizRjpe08op4Fu-Jd-6">
          <mxGeometry width="50" height="50" relative="1" as="geometry">
            <mxPoint x="297" y="215" as="sourcePoint" />
            <mxPoint x="237" y="270" as="targetPoint" />
          </mxGeometry>
        </mxCell>
        <mxCell id="zQ4rizRjpe08op4Fu-Jd-10" value="Data Collection" style="rounded=0;whiteSpace=wrap;html=1;" vertex="1" parent="WIyWlLk6GJQsqaUBKTNV-1">
          <mxGeometry x="177" y="270" width="120" height="40" as="geometry" />
        </mxCell>
        <mxCell id="zQ4rizRjpe08op4Fu-Jd-11" value="" style="endArrow=classic;html=1;exitX=1;exitY=0.5;exitDx=0;exitDy=0;" edge="1" parent="WIyWlLk6GJQsqaUBKTNV-1" source="zQ4rizRjpe08op4Fu-Jd-10">
          <mxGeometry width="50" height="50" relative="1" as="geometry">
            <mxPoint x="397" y="190" as="sourcePoint" />
            <mxPoint x="337" y="290" as="targetPoint" />
          </mxGeometry>
        </mxCell>
        <mxCell id="zQ4rizRjpe08op4Fu-Jd-12" value="Data Preprocessing" style="rounded=0;whiteSpace=wrap;html=1;" vertex="1" parent="WIyWlLk6GJQsqaUBKTNV-1">
          <mxGeometry x="347" y="280" width="120" height="40" as="geometry" />
        </mxCell>
        <mxCell id="zQ4rizRjpe08op4Fu-Jd-14" value="Data Preparation" style="rounded=0;whiteSpace=wrap;html=1;" vertex="1" parent="WIyWlLk6GJQsqaUBKTNV-1">
          <mxGeometry x="347" y="330" width="120" height="40" as="geometry" />
        </mxCell>
        <mxCell id="zQ4rizRjpe08op4Fu-Jd-17" value="" style="endArrow=classic;html=1;exitX=0;exitY=0.75;exitDx=0;exitDy=0;" edge="1" parent="WIyWlLk6GJQsqaUBKTNV-1" source="zQ4rizRjpe08op4Fu-Jd-16">
          <mxGeometry width="50" height="50" relative="1" as="geometry">
            <mxPoint x="307" y="300" as="sourcePoint" />
            <mxPoint x="297" y="353" as="targetPoint" />
          </mxGeometry>
        </mxCell>
        <mxCell id="zQ4rizRjpe08op4Fu-Jd-39" value="" style="edgeStyle=orthogonalEdgeStyle;rounded=0;orthogonalLoop=1;jettySize=auto;html=1;" edge="1" parent="WIyWlLk6GJQsqaUBKTNV-1" source="zQ4rizRjpe08op4Fu-Jd-18">
          <mxGeometry relative="1" as="geometry">
            <mxPoint x="154" y="355" as="targetPoint" />
          </mxGeometry>
        </mxCell>
        <mxCell id="zQ4rizRjpe08op4Fu-Jd-18" value="Machine Learning Algorithms" style="rounded=1;whiteSpace=wrap;html=1;fillColor=none;arcSize=50;" vertex="1" parent="WIyWlLk6GJQsqaUBKTNV-1">
          <mxGeometry x="177" y="330" width="120" height="50" as="geometry" />
        </mxCell>
        <mxCell id="zQ4rizRjpe08op4Fu-Jd-35" value="" style="edgeStyle=orthogonalEdgeStyle;rounded=0;orthogonalLoop=1;jettySize=auto;html=1;" edge="1" parent="WIyWlLk6GJQsqaUBKTNV-1" source="zQ4rizRjpe08op4Fu-Jd-19" target="zQ4rizRjpe08op4Fu-Jd-21">
          <mxGeometry relative="1" as="geometry" />
        </mxCell>
        <mxCell id="zQ4rizRjpe08op4Fu-Jd-19" value="Attributes Selection" style="rounded=0;whiteSpace=wrap;html=1;fontSize=12;glass=0;strokeWidth=1;shadow=0;arcSize=0;imageAspect=0;strokeOpacity=100;fillColor=#FFFFFF;" vertex="1" parent="WIyWlLk6GJQsqaUBKTNV-1">
          <mxGeometry x="24" y="429" width="120" height="37" as="geometry" />
        </mxCell>
        <mxCell id="zQ4rizRjpe08op4Fu-Jd-33" value="" style="edgeStyle=orthogonalEdgeStyle;rounded=0;orthogonalLoop=1;jettySize=auto;html=1;" edge="1" parent="WIyWlLk6GJQsqaUBKTNV-1" source="zQ4rizRjpe08op4Fu-Jd-20">
          <mxGeometry relative="1" as="geometry">
            <mxPoint x="84" y="430" as="targetPoint" />
          </mxGeometry>
        </mxCell>
        <mxCell id="zQ4rizRjpe08op4Fu-Jd-20" value="Statistical Analysis" style="rounded=0;whiteSpace=wrap;html=1;fillColor=#FFFFFF;" vertex="1" parent="WIyWlLk6GJQsqaUBKTNV-1">
          <mxGeometry x="24" y="351" width="120" height="39" as="geometry" />
        </mxCell>
        <mxCell id="zQ4rizRjpe08op4Fu-Jd-21" value="Model Development" style="rounded=0;whiteSpace=wrap;html=1;fillColor=#FFFFFF;" vertex="1" parent="WIyWlLk6GJQsqaUBKTNV-1">
          <mxGeometry x="24" y="507" width="120" height="41" as="geometry" />
        </mxCell>
        <mxCell id="zQ4rizRjpe08op4Fu-Jd-42" value="" style="edgeStyle=orthogonalEdgeStyle;rounded=0;orthogonalLoop=1;jettySize=auto;html=1;" edge="1" parent="WIyWlLk6GJQsqaUBKTNV-1" source="zQ4rizRjpe08op4Fu-Jd-26" target="zQ4rizRjpe08op4Fu-Jd-18">
          <mxGeometry relative="1" as="geometry" />
        </mxCell>
        <mxCell id="zQ4rizRjpe08op4Fu-Jd-44" value="" style="edgeStyle=orthogonalEdgeStyle;rounded=0;orthogonalLoop=1;jettySize=auto;html=1;" edge="1" parent="WIyWlLk6GJQsqaUBKTNV-1" source="zQ4rizRjpe08op4Fu-Jd-26" target="zQ4rizRjpe08op4Fu-Jd-43">
          <mxGeometry relative="1" as="geometry" />
        </mxCell>
        <mxCell id="zQ4rizRjpe08op4Fu-Jd-26" value="Model &lt;br&gt;Validation" style="rhombus;whiteSpace=wrap;html=1;rounded=1;arcSize=0;fillColor=#FFFFFF;" vertex="1" parent="WIyWlLk6GJQsqaUBKTNV-1">
          <mxGeometry x="200" y="403" width="74" height="97" as="geometry" />
        </mxCell>
        <mxCell id="zQ4rizRjpe08op4Fu-Jd-46" value="" style="edgeStyle=orthogonalEdgeStyle;rounded=0;orthogonalLoop=1;jettySize=auto;html=1;" edge="1" parent="WIyWlLk6GJQsqaUBKTNV-1" source="zQ4rizRjpe08op4Fu-Jd-43" target="zQ4rizRjpe08op4Fu-Jd-45">
          <mxGeometry relative="1" as="geometry" />
        </mxCell>
        <mxCell id="zQ4rizRjpe08op4Fu-Jd-43" value="Compare Models" style="shape=parallelogram;perimeter=parallelogramPerimeter;whiteSpace=wrap;html=1;fixedSize=1;rounded=1;fillColor=#FFFFFF;arcSize=0;" vertex="1" parent="WIyWlLk6GJQsqaUBKTNV-1">
          <mxGeometry x="177" y="530" width="120" height="40" as="geometry" />
        </mxCell>
        <mxCell id="zQ4rizRjpe08op4Fu-Jd-45" value="Model Selection" style="ellipse;whiteSpace=wrap;html=1;rounded=1;fillColor=#FFFFFF;arcSize=0;" vertex="1" parent="WIyWlLk6GJQsqaUBKTNV-1">
          <mxGeometry x="177" y="607.5" width="120" height="48.5" as="geometry" />
        </mxCell>
        <mxCell id="zQ4rizRjpe08op4Fu-Jd-48" value="Problem Statement" style="ellipse;whiteSpace=wrap;html=1;rounded=1;fillColor=#FFFFFF;arcSize=0;" vertex="1" parent="WIyWlLk6GJQsqaUBKTNV-1">
          <mxGeometry x="177" y="30" width="120" height="48.5" as="geometry" />
        </mxCell>
        <mxCell id="zQ4rizRjpe08op4Fu-Jd-50" value="Satisfactory" style="text;html=1;resizable=0;autosize=1;align=center;verticalAlign=middle;points=[];fillColor=none;strokeColor=none;rounded=0;" vertex="1" parent="WIyWlLk6GJQsqaUBKTNV-1">
          <mxGeometry x="230" y="500" width="80" height="20" as="geometry" />
        </mxCell>
        <mxCell id="zQ4rizRjpe08op4Fu-Jd-51" value="Unsatisfactory" style="text;html=1;resizable=0;autosize=1;align=center;verticalAlign=middle;points=[];fillColor=none;strokeColor=none;rounded=0;" vertex="1" parent="WIyWlLk6GJQsqaUBKTNV-1">
          <mxGeometry x="235" y="383" width="90" height="20" as="geometry" />
        </mxCell>
        <mxCell id="zQ4rizRjpe08op4Fu-Jd-52" value="" style="rounded=0;whiteSpace=wrap;html=1;fillColor=none;dashed=1;" vertex="1" parent="WIyWlLk6GJQsqaUBKTNV-1">
          <mxGeometry x="8" y="324" width="314" height="256" as="geometry" />
        </mxCell>
      </root>
    </mxGraphModel>
  </diagram>
</mxfile>
